<?xml version="1.0" encoding="UTF-8"?>
<svg id="Layer_1" data-name="Layer 1" xmlns="http://www.w3.org/2000/svg" xmlns:xlink="http://www.w3.org/1999/xlink" viewBox="0 0 155.09 35.54">
  <defs>
    <style>
      .cls-1 {
        fill: url(#linear-gradient);
      }

      .cls-1, .cls-2 {
        stroke-width: 0px;
      }

      .cls-2 {
        fill: #231f20;
      }
    </style>
    <linearGradient id="linear-gradient" x1="-580.38" y1="162.51" x2="-579.89" y2="162.51" gradientTransform="translate(122500.8 350.59) scale(211 -2)" gradientUnits="userSpaceOnUse">
      <stop offset="0" stop-color="#231f20"/>
      <stop offset=".72" stop-color="#009ad7"/>
    </linearGradient>
  </defs>
  <g>
    <path class="cls-2" d="M59.59,22.16h1.71c.43,0,.78-.35.78-.78v-1.72c0-.66.54-1.2,1.2-1.2s1.2.54,1.2,1.2v1.72c0,.43.35.78.78.78h1.76c.43,0,.78-.35.78-.78v-1.71c0-.43-.35-.78-.78-.78h-1.78c-.66,0-1.2-.54-1.2-1.2s.54-1.2,1.2-1.2h1.78c.43,0,.78-.35.78-.78v-1.77c0-.43-.35-.78-.78-.78h-1.76c-.43,0-.78.35-.78.78v1.78c0,.66-.54,1.2-1.2,1.2s-1.2-.54-1.2-1.2v-5.59c0-.43-.35-.78-.78-.78h-1.71c-.43,0-.78.35-.78.78v11.23c0,.43.35.78.78.78Z"/>
    <path class="cls-2" d="M88.79,22.16c.54,0,1.27-.01,1.99-.01.64,0,1.27,0,1.75.01h.01c.39,0,.71-.32.71-.71s-.32-.71-.71-.71h-.07c-.62,0-1.12-.5-1.12-1.12v-3.9c0-.62.5-1.12,1.12-1.12h.07c.39.01.72-.3.73-.69.01-.39-.3-.72-.69-.73-.01,0-.02,0-.04,0h-.07c-.62,0-1.12-.5-1.12-1.12v-1.98c0-.39-.32-.71-.71-.71h-1.86c-.39,0-.71.32-.71.71v11.38c0,.19.08.37.21.5.14.12.32.2.5.2Z"/>
    <path class="cls-2" d="M50.95,22.16h1.85c.39,0,.71-.32.71-.71v-5.73c0-.62.5-1.12,1.13-1.13h2.03c.39.01.72-.3.73-.69.01-.39-.3-.72-.69-.73-.01,0-.02,0-.04,0h-5.71c-.39,0-.71.32-.71.71v7.57c0,.39.32.71.71.71h0Z"/>
    <path class="cls-2" d="M69.98,22.16h7.54c.42,0,.75-.34.75-.75v-7.48c0-.42-.34-.75-.75-.75h-1.87c-.42,0-.75.34-.75.75v5.64c0,.65-.52,1.17-1.17,1.17s-1.17-.52-1.17-1.17v-5.65c0-.42-.34-.75-.75-.75h-1.82c-.42,0-.75.34-.75.75v7.48c0,.41.34.75.75.75Z"/>
    <path class="cls-2" d="M80.41,22.16h1.91c.39,0,.71-.32.71-.71v-5.73c0-.62.5-1.12,1.13-1.13h1.97c.39.01.72-.3.73-.69s-.3-.72-.69-.73c-.01,0-.02,0-.04,0h-5.72c-.39,0-.71.32-.71.71v7.57c0,.39.32.71.71.71Z"/>
    <path class="cls-2" d="M40.53,22.16h7.57c.39,0,.71-.32.71-.71,0-.39-.32-.71-.71-.71h-3.88c-.63,0-1.14-.51-1.14-1.14s.51-1.14,1.14-1.14h3.88c.39,0,.71-.32.71-.71v-3.87c0-.39-.32-.71-.71-.71h-7.56c-.39,0-.71.32-.71.71v7.57c0,.39.31.71.7.71,0,0,0,0,0,0ZM43.11,14.61h2.36v2.3h-2.36v-2.3Z"/>
    <rect class="cls-2" x="115.51" y="9.37" width="3.27" height="12.78" rx=".85" ry=".85"/>
    <path class="cls-2" d="M95.31,22.14h1.9c.4,0,.72-.32.72-.72v-5.67c0-.64.52-1.16,1.16-1.16s1.16.52,1.16,1.16v5.64c0,.42.34.75.75.75h1.82c.42,0,.75-.34.75-.75v-7.47c0-.42-.34-.75-.75-.75h-3.85c-.64,0-1.16-.52-1.16-1.16v-1.88c0-.42-.34-.75-.75-.75h-1.76c-.42,0-.75.34-.75.75v11.27c0,.42.34.75.75.75h0Z"/>
    <path class="cls-2" d="M106.33,22.14h6.45c.7,0,1.26-.57,1.26-1.26v-6.45c0-.7-.57-1.26-1.26-1.26h-6.45c-.7,0-1.26.56-1.26,1.26v6.45c0,.7.57,1.26,1.26,1.26h0ZM108.33,14.7h2.38v5.91h-2.38v-5.91Z"/>
    <path class="cls-2" d="M143.73,13.17h-7.52c-.42,0-.75.34-.75.75v7.47c0,.42.34.75.75.75h1.87c.42,0,.75-.34.75-.75v-5.64c0-.64.52-1.16,1.16-1.16s1.16.52,1.16,1.16v5.64c0,.42.34.75.75.75h1.82c.42,0,.75-.34.75-.75v-7.47c0-.42-.34-.75-.75-.75h0Z"/>
    <rect class="cls-2" x="130.71" y="13.17" width="3.27" height="8.97" rx=".95" ry=".95"/>
    <path class="cls-2" d="M131.27,9.37h2.14c.31,0,.56.25.56.56v.44c0,.31-.25.56-.56.56h-2.14c-.31,0-.56-.25-.56-.56v-.44c0-.31.25-.56.56-.56Z"/>
    <path class="cls-2" d="M154.31,13.17h-7.57c-.43,0-.78.35-.78.78h0v7.41c0,.43.35.78.78.78h3.83c.66,0,1.19.53,1.19,1.19v.08c0,.66-.53,1.19-1.19,1.19h-3.83c-.43,0-.78.35-.78.78s.35.78.78.78h7.57c.43,0,.78-.35.78-.78v-11.44c0-.43-.35-.78-.78-.78ZM151.76,20.74h-2.42v-6.01h2.42v6.01Z"/>
    <path class="cls-2" d="M121.19,22.14h7.1c.52,0,.93-.42.93-.93v-10.91c0-.52-.42-.93-.93-.93h-1.41c-.51,0-.93.41-.93.92l-.02,1.55c-.01.74-.61,1.33-1.35,1.33h-3.39c-.52,0-.93.42-.93.93v7.1c0,.52.42.93.94.93,0,0,0,0,0,0ZM123.52,14.7h2.39v5.91h-2.38v-5.91Z"/>
    <path class="cls-1" d="M40.31,25.07h102.84c.27,0,.49.22.49.49h0c0,.27-.22.49-.49.49H40.31c-.27,0-.49-.22-.49-.49h0c0-.27.22-.49.49-.49Z"/>
  </g>
  <path class="cls-2" d="M35.01,17.01l-8.35-8.35s-.01,0-.02-.01c0,0,0-.01-.01-.02-.4-.4-1.04-.4-1.43,0,0,0-1.64,1.64-3.52,3.52-.39.3-1.19.68-2.18-.07l-.25-.25c-.99-.99-.99-2.61,0-3.6l.12-.12c.93-.93,2.43-.93,3.36,0l.56.56c.38.38,1.01.38,1.39,0l.3-.3c.38-.38.38-1,0-1.39L18.28.29c-.38-.38-1.01-.38-1.39,0l-.3.3c-.38.38-.38,1,0,1.39l.98.97c.99.99.99,2.61,0,3.6h0c-.99.99-2.6.99-3.6,0l-.94-.92c-.38-.38-.99-.37-1.37.01l-1.53,1.53c-.38.38-.38,1,0,1.39l5.61,5.61c1.4,1.63.83,2.95.28,3.67l-3.77,3.77c-.63.63-1.66.63-2.3,0s-.63-1.66,0-2.3l3.91-3.91c.39-.4.39-1.04,0-1.43l-4.53-4.53c-.4-.39-1.04-.39-1.43,0L.3,17.1c-.39.4-.39,1.04,0,1.43l8.23,8.23s.01,0,.02.01c0,0,0,.01.01.02.4.4,1.04.4,1.43,0,0,0,1.64-1.64,3.52-3.52.39-.3,1.19-.68,2.18.07l.25.25c.99.99.99,2.61,0,3.6l-.12.12c-.93.93-2.43.93-3.36,0l-.56-.56c-.38-.38-1.01-.38-1.39,0l-.3.3c-.38.38-.38,1,0,1.39l6.83,6.81c.38.38,1.01.38,1.39,0l.3-.3c.38-.38.38-1,0-1.39l-.98-.97c-.99-.99-.99-2.61,0-3.6.99-.99,2.6-.99,3.6,0l.94.92c.38.38.99.37,1.37-.01l1.53-1.53c.38-.38.38-1,0-1.39l-5.73-5.73c-1.4-1.63-.83-2.95-.28-3.67l3.77-3.77c.63-.63,1.66-.63,2.3,0s.63,1.66,0,2.3l-3.91,3.91c-.39.4-.39,1.04,0,1.43l4.64,4.65c.4.39,1.04.39,1.43,0l7.6-7.66c.39-.4.39-1.04,0-1.43ZM4.58,16.19l2.73-2.73,2.44,2.44-2.73,2.73-2.44-2.44ZM28,22.08l-2.56-2.56,2.73-2.73,2.56,2.56-2.73,2.73Z"/>
</svg>