<?xml version="1.0" encoding="UTF-8"?>
<svg id="Layer_1" data-name="Layer 1" xmlns="http://www.w3.org/2000/svg" version="1.1" xmlns:xlink="http://www.w3.org/1999/xlink" viewBox="0 0 152 30.1">
  <defs>
    <style>
      .cls-1 {
        fill: url(#linear-gradient);
      }

      .cls-1, .cls-2, .cls-3, .cls-4, .cls-5 {
        stroke-width: 0px;
      }

      .cls-2 {
        fill: #000;
      }

      .cls-3 {
        fill: #414042;
      }

      .cls-4 {
        fill: url(#linear-gradient-2);
      }

      .cls-5 {
        fill: #231f20;
      }
    </style>
    <linearGradient id="linear-gradient" x1="961.4" y1="197.8" x2="1006.7" y2="197.8" gradientTransform="translate(1113.4 -173) rotate(-180) scale(1 -1)" gradientUnits="userSpaceOnUse">
      <stop offset="0" stop-color="#000"/>
      <stop offset=".7" stop-color="#f6894c"/>
    </linearGradient>
    <linearGradient id="linear-gradient-2" x1="583.6" y1="197.8" x2="629" y2="197.8" gradientTransform="translate(-531.6 -173)" gradientUnits="userSpaceOnUse">
      <stop offset="0" stop-color="#000"/>
      <stop offset=".7" stop-color="#f6894c"/>
    </linearGradient>
  </defs>
  <g>
    <path class="cls-2" d="M51.8,9.3h-5.8c-.1,0-.2,0-.3.1s-.1.2-.1.3v15.6c0,.2.2.4.4.4h3.4c.2,0,.4-.2.4-.4v-3.6c0-.5.4-.9.9-.9h1.1c.2,0,.4-.2.4-.4v-1c0-.2-.2-.4-.4-.4h-1.1c-.5,0-.9-.4-.9-.9v-6c0-.5.4-.9.9-.9h1.1c.2,0,.4-.2.4-.4v-1c0-.2-.2-.4-.4-.4Z"/>
    <path class="cls-2" d="M75.8,9.3h-7.3c-.5,0-.9.4-.9.9v9.7c0,.5.4.9.9.9h2.4c.5,0,.9-.4.9-.9v-7.4c0-.8.7-1.4,1.4-1.4h2.6c.5,0,.9-.4.9-.9s-.4-.9-.9-.9Z"/>
    <path class="cls-2" d="M96.4,9.3h-17c-.5,0-1,.4-1,1v9.6c0,.5.4,1,1,1h2.4c.5,0,1-.4,1-1v-7.2c0-.8.7-1.5,1.5-1.5s1.5.7,1.5,1.5v7.2c0,.5.4,1,1,1h2.3c.6,0,1-.4,1-1v-7.2c0-.8.7-1.5,1.5-1.5s1.5.7,1.5,1.5v7.2c0,.5.4,1,1,1h2.3c.5,0,1-.4,1-1v-9.6c0-.5-.4-1-1-1h0Z"/>
    <path class="cls-2" d="M105.2,9.3h-5.5c-.2,0-.3,0-.4.2s-.2.3-.2.4v15.2c0,.3.3.6.6.6h3c.3,0,.6-.3.6-.6v-3.2c0-.6.5-1.1,1.1-1.1h.7c.3,0,.6-.3.6-.6v-.6c0-.3-.3-.6-.6-.6h-.7c-.6,0-1.1-.5-1.1-1.1v-5.6c0-.6.5-1.1,1.1-1.1h.7c.3,0,.6-.3.6-.6v-.6c0-.3-.3-.6-.6-.6h0Z"/>
    <path class="cls-2" d="M124.3,9.3h-9.7c-.5,0-.9.4-.9.9v9.7c0,.5.4.9.9.9h9.7c.5,0,.9-.4.9-.9s-.4-.9-.9-.9h-5c-.8,0-1.4-.6-1.4-1.4s.7-1.5,1.4-1.5h5c.5,0,.9-.4.9-.9v-5c0-.5-.4-.9-.9-.9h0ZM121,14.1h-3v-2.9h3v2.9Z"/>
    <path class="cls-2" d="M137.6,9.3h-2.3c-.6,0-1,.4-1,1v2.3c0,.8-.7,1.5-1.5,1.5s-1.5-.7-1.5-1.5v-7.2c0-.6-.4-1-1-1h-2.2c-.6,0-1,.4-1,1v14.4c0,.6.4,1,1,1h2.2c.6,0,1-.5,1-1v-2.2c0-.8.7-1.5,1.5-1.5s1.5.7,1.5,1.5v2.2c0,.6.4,1,1,1h2.3c.6,0,1-.5,1-1v-2.2c0-.6-.4-1-1-1h-2.3c-.8,0-1.5-.7-1.5-1.5s.7-1.5,1.5-1.5h2.3c.6,0,1-.4,1-1v-2.3c0-.6-.4-1-1-1h0Z"/>
    <path class="cls-2" d="M151.1,14h-5c-.8,0-1.4-.6-1.4-1.4s.6-1.5,1.4-1.5h5c.5,0,.9-.4.9-.9s-.4-.9-.9-.9h-9.7c-.5,0-.9.4-.9.9v4.9c0,.5.4.9.9.9h4.9c.8,0,1.4.6,1.4,1.4h0c0,.9-.6,1.5-1.4,1.5h-4.9c-.5,0-.9.4-.9.9s.4.9.9.9h9.7c.5,0,.9-.4.9-.9v-5c0-.5-.4-.9-.9-.9h0Z"/>
    <path class="cls-1" d="M151.2,25.7h-43.6c-.5,0-.9-.4-.9-.9h0c0-.5.4-.9.9-.9h43.6c.5,0,.9.4.9.9h0c0,.5-.4.9-.9.9Z"/>
    <path class="cls-4" d="M52.9,25.7h43.6c.5,0,.9-.4.9-.9h0c0-.5-.4-.9-.9-.9h-43.6c-.5,0-.9.4-.9.9h0c0,.5.4.9.9.9Z"/>
    <path class="cls-2" d="M55.7,20.9h8.4c.9,0,1.6-.7,1.6-1.6v-8.4c0-.9-.7-1.6-1.6-1.6h-8.4c-.9,0-1.6.7-1.6,1.6v8.4c0,.9.7,1.6,1.6,1.6h0ZM58.3,11.2h3.1v7.7h-3.1v-7.7Z"/>
    <rect class="cls-2" x="107.7" y="4.4" width="4.2" height="16.4" rx="1" ry="1"/>
  </g>
  <g>
    <g>
      <path class="cls-5" d="M38.5,10.1l-1.8-1.9-.5-1.6s-.7-.3-1.3,0h0s0,0,0,0h0s0,0,0,0l-2.5,3.9c-.4.6-1.1.6-1.6.1l-.2-.2-.2-1.1s-.9-.6-1.5.1h0s0,0,0,0l-.8,1.2c-.2.3-.1.7.1.9l1.2,1.1c.5.5.7,1.4.3,2.1l-5.1,7.8c-.5.7-1.4.9-2,.4l-.9-.7v-.5c.1,0-.5-.3-1.2,0,0,0,0,0-.1,0h0s0,0-.1.1l-1,1.5c-.2.3-.2.8.1,1l7.4,5.3h0s.1,0,.1,0h0s0,0,0,0h0c.2,0,1,.2,1.4-.1l10.3-18-.2-.4.3-.6c.1-.2,0-.6,0-.8h0Z"/>
      <path class="cls-5" d="M16.4,18.2c-.2-.5-.2-1.2.2-1.7l6-8c.5-.6,1.4-.7,2,0l1.3,1.2c.1.1.2.2.4.2h0s.7.3,1.4,0l-.2-1.1v-.2c.3-.3.3-.7,0-.9l-4-3.9-2.7-3.3h0c0-.1-.6-.4-1.3-.1,0,0-.1,0-.2.1h0s0,0,0,0L.2,23c-.3.4-.2,1,.2,1.2l6.4,3.8c0,0,.1,0,.2,0h0s1.3.3,1.9-.2c.2-.2,0-.5-.3-.9l3.8-5c.6-.8,1.7-1,2.5-.4l1.6,1.2s0,0,0,0h0s.7.5,1.7,0v-.7l1.1-1.6-3.1-2.3h0Z"/>
    </g>
    <g>
      <path class="cls-3" d="M28.4,7.5L21.2.3h0c-.1-.1-.3-.2-.5-.2-.2,0-.3,0-.5.2L1.2,23c-.3.4-.2,1,.2,1.2l6.4,3.8c.4.2,1,.1,1.2-.3l4.4-5.8c.6-.8,1.7-1,2.5-.4l1.6,1.2c.3.2.8.1,1-.2l1-1.5c.2-.3.2-.8-.1-1l-1.6-1.2c-.8-.6-.9-1.6-.4-2.4l6-8c.5-.6,1.4-.7,2,0l1.3,1.2c.3.2.6.2.8,0l.9-1.2c.2-.3.1-.7-.1-.9h0Z"/>
      <path class="cls-3" d="M20.2,24.6l7.4,5.3h0c.1,0,.3.1.4,0,.1,0,.3-.2.4-.3l11.2-18.8c.1-.2,0-.6,0-.8l-3-3.3c-.2-.2-.5-.2-.7,0l-2.5,3.9c-.4.6-1.1.6-1.6.1l-1.2-1.2c-.2-.2-.6-.2-.8,0l-.8,1.2c-.2.3-.1.7.1.9l1.2,1.1c.5.5.7,1.4.3,2.1l-5.1,7.8c-.5.7-1.4.9-2,.4l-1.4-1.1c-.3-.2-.7-.1-1,.2l-1,1.5c-.2.3-.2.8.1,1h0Z"/>
    </g>
  </g>
</svg>